# xmcd
#
# Track frame offsets: 
#        150
#        18404
#        37496
#
# Disc length: 779 seconds
#
# Revision: 1
# Processed by: cddbd v1.5.2PL0 Copyright (c) Steve Scherf et al.
# Submitted via: ExactAudioCopy v1.0b3
#
DISCID=23030903
DTITLE=Esovae - Esovae
DYEAR=1999
DGENRE=Rock
TTITLE0=Crawl
TTITLE1=Katherine
TTITLE2=Star
EXTD=YEAR: 1992
EXTT0=
EXTT1=
EXTT2=
PLAYORDER=
